<svg  viewBox="0 0 124 34" fill="none" xmlns="http://www.w3.org/2000/svg">
<path d="M42.8737 19.5327C42.1937 19.5327 41.6737 19.3127 41.3137 18.8727C40.9537 18.4327 40.7737 17.8527 40.7737 17.1327V11.0327H38.8737V9.5327H40.7737V7.1327H42.4737V9.5327H45.3937V11.0327H42.4737V17.2327C42.4737 17.526 42.547 17.7327 42.6937 17.8527C42.8404 17.9727 43.067 18.0327 43.3737 18.0327H45.3937V19.5327H42.8737ZM52.8145 19.5327C51.6412 19.5327 50.7812 19.286 50.2345 18.7927C49.6878 18.286 49.4145 17.466 49.4145 16.3327V12.7327C49.4145 11.586 49.6612 10.766 50.1545 10.2727C50.6478 9.77937 51.4678 9.5327 52.6145 9.5327H53.5545C54.5012 9.5327 55.2145 9.79937 55.6945 10.3327C56.1878 10.8527 56.4345 11.6194 56.4345 12.6327V15.2327H51.1145V16.7327C51.1145 17.146 51.2412 17.466 51.4945 17.6927C51.7478 17.9194 52.1212 18.0327 52.6145 18.0327H55.7945V19.5327H52.8145ZM54.7745 12.2327C54.7745 11.886 54.6612 11.5994 54.4345 11.3727C54.2078 11.146 53.9212 11.0327 53.5745 11.0327H52.4145C51.9345 11.0327 51.5945 11.146 51.3945 11.3727C51.2078 11.586 51.1145 11.906 51.1145 12.3327V13.7327H54.7745V12.2327ZM64.4753 19.5327C63.7953 19.5327 63.2753 19.3127 62.9153 18.8727C62.5553 18.4327 62.3753 17.8527 62.3753 17.1327V11.0327H60.4753V9.5327H62.3753V7.1327H64.0753V9.5327H66.9953V11.0327H64.0753V17.2327C64.0753 17.526 64.1486 17.7327 64.2953 17.8527C64.4419 17.9727 64.6686 18.0327 64.9753 18.0327H66.9953V19.5327H64.4753ZM72.596 18.0327V11.0327H71.136V9.5327H74.196V10.0727C74.636 9.7127 75.1694 9.5327 75.796 9.5327H77.856V11.1327H75.596C75.1694 11.1327 74.8494 11.2727 74.636 11.5527C74.4227 11.8194 74.3094 12.0927 74.296 12.3727V18.0327H76.476V19.5327H71.136V18.0327H72.596ZM86.3368 17.5327V19.5327H84.3368V17.5327H86.3368ZM98.2376 19.0727C97.7976 19.3794 97.2643 19.5327 96.6376 19.5327H95.8176C94.6443 19.5327 93.7843 19.286 93.2376 18.7927C92.6909 18.286 92.4176 17.466 92.4176 16.3327V12.7327C92.4176 11.6127 92.6909 10.7994 93.2376 10.2927C93.7976 9.78603 94.6576 9.5327 95.8176 9.5327H98.1376V5.5327H99.8376V19.5327H98.2376V19.0727ZM96.8376 18.0327C97.2776 18.0327 97.6043 17.9194 97.8176 17.6927C98.0309 17.4527 98.1376 17.1994 98.1376 16.9327V11.0327H95.6176C95.1243 11.0327 94.7509 11.146 94.4976 11.3727C94.2443 11.5994 94.1176 11.9194 94.1176 12.3327V16.7327C94.1176 17.146 94.2443 17.466 94.4976 17.6927C94.7509 17.9194 95.1243 18.0327 95.6176 18.0327H96.8376ZM106.818 19.5327C105.645 19.5327 104.785 19.286 104.238 18.7927C103.692 18.286 103.418 17.466 103.418 16.3327V12.7327C103.418 11.586 103.665 10.766 104.158 10.2727C104.652 9.77937 105.472 9.5327 106.618 9.5327H107.558C108.505 9.5327 109.218 9.79937 109.698 10.3327C110.192 10.8527 110.438 11.6194 110.438 12.6327V15.2327H105.118V16.7327C105.118 17.146 105.245 17.466 105.498 17.6927C105.752 17.9194 106.125 18.0327 106.618 18.0327H109.798V19.5327H106.818ZM108.778 12.2327C108.778 11.886 108.665 11.5994 108.438 11.3727C108.212 11.146 107.925 11.0327 107.578 11.0327H106.418C105.938 11.0327 105.598 11.146 105.398 11.3727C105.212 11.586 105.118 11.906 105.118 12.3327V13.7327H108.778V12.2327ZM113.619 9.5327H115.459L117.799 18.1527L120.079 9.5327H121.859L118.979 19.5327H116.519L113.619 9.5327Z" fill="#EFEFEF"/>
<path d="M15.5513 2.27331C15.9534 1.57698 16.9584 1.57698 17.3604 2.27331L29.5719 23.4242C29.974 24.1206 29.4714 24.991 28.6674 24.991H4.2444C3.44035 24.991 2.93782 24.1206 3.33984 23.4242L15.5513 2.27331Z" stroke="#EFEFEF" stroke-width="1.04449" stroke-linecap="round"/>
<path d="M16.4559 1.75105L16.4349 16.8961" stroke="#EFEFEF" stroke-width="1.04449" stroke-linecap="round"/>
<path d="M3.59031 24.5325L16.4362 16.7552L29.2818 24.3101" stroke="#EFEFEF" stroke-width="1.04449" stroke-linecap="round"/>
</svg>
